<svg
  id="ARKStarmap_Icon"
  data-name="ARKStarmap Icon"
  xmlns="http://www.w3.org/2000/svg"
  viewBox="0 0 640 640"
>
  <path
    d="M585 96.2744V465.03L497.401 465.519C497.346 465.52 497.293 465.535 497.246 465.564C497.199 465.592 497.161 465.632 497.134 465.679C497.107 465.727 497.093 465.781 497.094 465.835C497.094 465.89 497.109 465.943 497.136 465.991C507.725 483.878 518.145 501.813 528.398 519.794C532.229 526.518 534.636 531.473 535.619 534.659C539.975 548.828 535.768 563.883 525.102 574.02C506.684 591.535 476.979 586.516 464.574 564.811C456.011 549.827 447.286 534.976 438.397 520.258C438.359 520.196 438.334 520.126 438.323 520.054C438.313 519.982 438.317 519.908 438.335 519.837C438.354 519.766 438.387 519.7 438.431 519.641C438.476 519.582 438.532 519.533 438.596 519.496L451.134 512.175C451.245 512.111 451.368 512.069 451.495 512.052C451.623 512.035 451.753 512.044 451.877 512.078C452.001 512.112 452.117 512.17 452.218 512.249C452.32 512.329 452.404 512.427 452.467 512.54C459.854 525.701 467.357 538.794 474.975 551.818C478.398 557.664 481.183 561.537 483.331 563.436C499.968 578.16 526.17 562.368 521.301 540.886C520.743 538.435 519.241 535.136 516.796 530.99C497.727 498.727 478.796 466.377 460.003 433.942C457.921 430.343 455.978 427.709 454.173 426.042C445.776 418.291 432.733 417.57 423.731 425.048C417.313 430.373 414.125 439.201 415.789 447.317C416.292 449.773 417.81 453.191 420.344 457.569C427.935 470.67 435.689 483.964 443.606 497.451C443.965 498.064 443.838 498.55 443.225 498.909L430.927 506.047C430.843 506.096 430.749 506.128 430.652 506.141C430.555 506.153 430.456 506.147 430.361 506.122C430.267 506.096 430.178 506.052 430.1 505.993C430.023 505.933 429.958 505.859 429.909 505.774L406.638 465.875C406.511 465.648 406.318 465.535 406.059 465.535C293.058 465.441 209.164 465.436 154.375 465.519C152.909 465.527 151.369 465.229 150.226 465.229C136.441 465.229 122.65 465.215 108.853 465.187C102.145 465.171 97.0494 464.776 93.5658 464.003C71.9186 459.184 56.4989 440.7 55 418.415V104.862C56.1759 84.6475 67.0492 68.2009 85.2017 59.87C115.296 46.0486 148.512 63.7042 156.155 95.4711C156.213 95.701 156.344 95.905 156.529 96.0507C156.714 96.1963 156.941 96.275 157.174 96.2744H585ZM156.669 382.035C141.2 382.157 125.733 382.328 110.269 382.549C104.296 382.637 99.785 383.09 96.7375 383.907C82.9823 387.609 71.7778 400.022 70.7012 414.796C69.2852 434.34 86.1706 449.859 105.102 449.776C203.019 449.368 301.053 449.274 399.202 449.494C399.294 449.495 399.385 449.476 399.47 449.439C399.554 449.401 399.629 449.346 399.691 449.277C399.752 449.208 399.798 449.127 399.825 449.038C399.852 448.95 399.86 448.857 399.848 448.766C398.131 435.03 402.164 423.486 411.947 414.134C412.162 413.924 412.195 413.689 412.046 413.43L399.144 391.368C399 391.12 398.802 391.056 398.548 391.178C370.386 404.251 341.901 405.908 313.093 396.147C294.585 389.87 278.378 378.483 265.551 363.668C265.436 363.537 265.279 363.453 265.108 363.43C264.938 363.407 264.765 363.448 264.623 363.543L233.784 384.487C233.613 384.605 233.488 384.778 233.429 384.979C233.37 385.179 233.381 385.394 233.461 385.588C242.976 408.386 226.554 433.131 201.876 433.859C186.009 434.332 171.683 423.119 167.724 408.246C159.41 376.992 191.723 353.25 219.507 368.976C220.873 369.746 222.306 371.071 223.706 372.073C223.96 372.25 224.214 372.253 224.467 372.081L255.572 350.972C255.804 350.818 255.845 350.619 255.696 350.376C232.244 312.109 232.111 264.872 257.866 227.449C258.053 227.179 258.015 226.944 257.75 226.745L220.17 198.291C219.91 198.092 219.651 198.092 219.391 198.291C208.846 206.44 197.578 208.529 185.587 204.56C160.934 196.386 153.812 165.431 171.741 146.873C181.91 136.347 197.429 133.449 210.903 139.271C227.995 146.649 236.517 166.773 229.237 184.528C229.116 184.815 229.182 185.055 229.436 185.248L267.745 214.241C267.873 214.337 268.031 214.383 268.19 214.369C268.349 214.355 268.498 214.283 268.607 214.166C321.408 159.129 409.752 170.938 447.175 236.517C447.202 236.565 447.22 236.617 447.226 236.672C447.232 236.727 447.228 236.782 447.212 236.835C447.197 236.888 447.171 236.938 447.136 236.982C447.101 237.025 447.058 237.062 447.01 237.089L433.826 244.393C433.694 244.466 433.539 244.484 433.393 244.442C433.247 244.4 433.123 244.302 433.047 244.169C413.189 209.082 374.515 190.2 334.741 196.411C289.21 203.517 256.417 241.61 254.098 287.265C253.43 300.393 255.5 313.053 260.309 325.243C278.403 371.104 326.882 395.6 374.416 383.046C391.36 378.574 406.672 369.357 418.87 356.736C444.02 330.725 452.028 292.35 439.523 258.372C439.451 258.178 439.458 257.964 439.544 257.776C439.629 257.588 439.785 257.442 439.979 257.37L453.734 252.293C453.811 252.265 453.893 252.253 453.975 252.256C454.057 252.26 454.138 252.28 454.212 252.314C454.285 252.349 454.352 252.398 454.406 252.458C454.461 252.519 454.502 252.589 454.529 252.666C460.282 268.544 462.36 284.91 460.765 301.765C459.373 316.365 454.098 331.727 447.167 345.134C447.12 345.226 447.109 345.332 447.137 345.431C447.165 345.529 447.229 345.613 447.316 345.664L492.2 372.355C492.46 372.509 492.694 372.482 492.904 372.272C496.901 368.385 501.569 365.614 506.908 363.957C507.056 363.911 507.186 363.819 507.279 363.694C507.371 363.569 507.421 363.417 507.421 363.262L507.322 254.96C507.322 254.645 507.167 254.455 506.858 254.388C497.136 252.335 489.915 247.294 485.194 239.267C475.853 223.375 482.462 202.92 498.602 195.393C515.736 187.401 535.313 195.658 541.739 213.446C543.246 217.62 543.801 221.733 543.403 225.785C542.178 238.361 535.553 247.311 523.528 252.633C523.43 252.677 523.346 252.749 523.287 252.841C523.228 252.932 523.197 253.038 523.197 253.146L523.52 362.227C523.519 362.386 523.572 362.541 523.67 362.666C523.768 362.791 523.905 362.878 524.058 362.914C535.646 365.702 543.864 372.029 548.712 381.895C560.984 406.863 540.695 435.706 513.127 432.245C497.591 430.299 485.385 418.68 482.569 403.111C481.68 398.187 482.122 392.655 483.894 386.516C483.977 386.245 483.894 386.035 483.646 385.886L438.612 359.129C438.476 359.047 438.313 359.018 438.154 359.049C437.996 359.079 437.852 359.167 437.751 359.295C430.701 368.311 422.461 376.07 413.032 382.574C412.805 382.728 412.761 382.927 412.899 383.17L425.743 405.165C425.903 405.435 426.135 405.535 426.439 405.463C442.449 401.455 455.818 404.894 466.545 415.782C468.621 417.896 470.835 420.938 473.187 424.907C477.901 432.868 482.597 440.904 487.273 449.014C487.389 449.213 487.566 449.312 487.803 449.312L568.934 449.702C569.044 449.702 569.15 449.658 569.227 449.58C569.305 449.503 569.348 449.397 569.348 449.287L569.299 112.53C569.299 112.465 569.273 112.401 569.228 112.355C569.183 112.308 569.122 112.282 569.059 112.282H157.712C157.486 112.282 157.373 112.395 157.373 112.622C157.307 165.829 157.654 218.953 156.942 272.077C156.94 272.264 156.864 272.443 156.731 272.575C156.597 272.707 156.417 272.781 156.23 272.781L142.185 272.673C142.006 272.671 141.836 272.599 141.71 272.471C141.585 272.344 141.514 272.173 141.514 271.994C141.271 218.978 141.208 166.168 141.324 113.566C141.34 106.184 141.081 101.348 140.545 99.0569C138 88.1919 132.242 80.2915 123.271 75.3559C98.9983 61.9983 70.4777 79.7036 70.5936 106.941C70.9828 198.266 70.4363 289.617 70.5273 380.909C70.5283 380.962 70.5442 381.012 70.5733 381.056C70.6024 381.1 70.6433 381.134 70.6913 381.155C70.7393 381.176 70.7922 381.182 70.8439 381.174C70.8956 381.166 70.9438 381.143 70.9828 381.108C77.7679 374.803 85.4833 370.613 94.1289 368.537C97.6457 367.698 103.131 367.206 110.584 367.063C120.317 366.881 130.323 366.751 140.603 366.674C141.227 366.668 141.539 366.354 141.539 365.73V288.847C141.539 288.715 141.591 288.588 141.682 288.495C141.774 288.402 141.898 288.35 142.028 288.35L156.296 288.225C156.496 288.225 156.688 288.305 156.829 288.446C156.97 288.588 157.05 288.779 157.05 288.979L157.066 381.638C157.066 381.897 156.934 382.03 156.669 382.035ZM215.855 171.385C215.855 168.88 215.361 166.399 214.403 164.084C213.444 161.769 212.038 159.665 210.267 157.894C208.495 156.122 206.391 154.717 204.077 153.758C201.762 152.799 199.281 152.305 196.775 152.305C191.715 152.305 186.862 154.316 183.283 157.894C179.705 161.472 177.695 166.325 177.695 171.385C177.695 176.446 179.705 181.299 183.283 184.877C186.862 188.455 191.715 190.465 196.775 190.465C199.281 190.465 201.762 189.972 204.077 189.013C206.391 188.054 208.495 186.649 210.267 184.877C212.038 183.105 213.444 181.002 214.403 178.687C215.361 176.372 215.855 173.891 215.855 171.385ZM527.305 223.532C527.305 219.504 525.704 215.641 522.856 212.793C520.008 209.945 516.145 208.345 512.117 208.345C508.089 208.345 504.226 209.945 501.377 212.793C498.529 215.641 496.929 219.504 496.929 223.532C496.929 227.56 498.529 231.423 501.377 234.272C504.226 237.12 508.089 238.72 512.117 238.72C516.145 238.72 520.008 237.12 522.856 234.272C525.704 231.423 527.305 227.56 527.305 223.532ZM536.373 397.43C536.373 392.37 534.362 387.517 530.784 383.939C527.206 380.36 522.353 378.35 517.292 378.35C512.232 378.35 507.379 380.36 503.801 383.939C500.223 387.517 498.213 392.37 498.213 397.43C498.213 402.491 500.223 407.344 503.801 410.922C507.379 414.5 512.232 416.51 517.292 416.51C522.353 416.51 527.206 414.5 530.784 410.922C534.362 407.344 536.373 402.491 536.373 397.43ZM220.41 398.507C220.41 395.982 219.912 393.481 218.946 391.148C217.98 388.815 216.563 386.695 214.778 384.91C212.992 383.124 210.872 381.708 208.539 380.741C206.206 379.775 203.706 379.278 201.181 379.278C196.081 379.278 191.19 381.304 187.584 384.91C183.977 388.516 181.952 393.407 181.952 398.507C181.952 403.607 183.977 408.498 187.584 412.104C191.19 415.71 196.081 417.736 201.181 417.736C203.706 417.736 206.206 417.239 208.539 416.272C210.872 415.306 212.992 413.889 214.778 412.104C216.563 410.318 217.98 408.198 218.946 405.865C219.912 403.533 220.41 401.032 220.41 398.507Z"
    fill="white" />
  <path
    d="M403.969 133.569L389.245 133.544C388.847 133.543 388.524 133.865 388.523 134.263L388.498 148.821C388.497 149.219 388.819 149.542 389.217 149.543L403.941 149.569C404.339 149.569 404.662 149.247 404.663 148.85L404.688 134.291C404.689 133.893 404.367 133.57 403.969 133.569Z"
    fill="white" />
  <path
    d="M537.162 156.326L522.935 156.351C522.386 156.352 521.942 156.797 521.943 157.346L521.967 171.358C521.968 171.907 522.414 172.351 522.963 172.35L537.19 172.325C537.739 172.324 538.183 171.878 538.182 171.33L538.157 157.318C538.156 156.769 537.711 156.325 537.162 156.326Z"
    fill="white" />
  <path
    d="M426.977 290.677C426.977 311.171 418.836 330.825 404.345 345.316C389.853 359.808 370.199 367.949 349.705 367.949C329.211 367.949 309.556 359.808 295.065 345.316C280.574 330.825 272.432 311.171 272.432 290.677C272.432 270.183 280.574 250.528 295.065 236.037C309.556 221.545 329.211 213.404 349.705 213.404C370.199 213.404 389.853 221.545 404.345 236.037C418.836 250.528 426.977 270.183 426.977 290.677ZM343.916 229.876C330.622 231.052 319.006 236.045 309.069 244.856C308.804 245.088 308.815 245.312 309.102 245.527L330.94 262.04C330.994 262.081 331.057 262.11 331.124 262.124C331.192 262.139 331.261 262.139 331.329 262.124C331.396 262.109 331.46 262.08 331.515 262.038C331.571 261.996 331.618 261.943 331.652 261.883L349.142 229.909C349.176 229.845 349.193 229.774 349.189 229.701C349.185 229.629 349.161 229.56 349.119 229.5C349.078 229.441 349.021 229.394 348.955 229.366C348.889 229.337 348.816 229.327 348.744 229.337C347.187 229.547 345.578 229.727 343.916 229.876ZM411.069 288.822C409.338 256.401 384.817 230.969 352.173 229.594C351.576 229.567 351.422 229.815 351.709 230.339L372.089 267.58C372.403 268.148 372.871 268.614 373.439 268.922L410.481 289.186C410.544 289.22 410.614 289.238 410.686 289.236C410.757 289.234 410.827 289.214 410.887 289.177C410.947 289.139 410.996 289.087 411.028 289.024C411.06 288.962 411.074 288.892 411.069 288.822ZM288.639 286.337C288.54 287.734 288.415 288.777 288.266 289.468C288.251 289.542 288.257 289.619 288.284 289.69C288.31 289.761 288.357 289.823 288.418 289.869C288.479 289.914 288.552 289.941 288.628 289.946C288.704 289.951 288.779 289.935 288.846 289.898L318.758 273.559C318.814 273.529 318.861 273.485 318.896 273.432C318.93 273.379 318.951 273.317 318.956 273.254C318.961 273.191 318.95 273.127 318.924 273.069C318.898 273.011 318.858 272.96 318.807 272.922L298.676 257.701C298.627 257.664 298.57 257.637 298.51 257.623C298.45 257.608 298.388 257.607 298.327 257.618C298.267 257.628 298.209 257.652 298.158 257.686C298.107 257.72 298.063 257.765 298.03 257.817C292.47 266.506 289.34 276.013 288.639 286.337ZM338.095 281.161C332.601 284.259 326.984 287.342 321.242 290.412C321.188 290.442 321.142 290.487 321.11 290.541C321.079 290.595 321.062 290.656 321.062 290.718C321.062 290.78 321.079 290.841 321.11 290.893C321.142 290.945 321.188 290.988 321.242 291.016L338.972 300.664C339.626 301.021 340.162 301.562 340.513 302.221L349.862 319.918C349.904 319.998 349.966 320.065 350.043 320.112C350.12 320.16 350.208 320.185 350.299 320.186C350.389 320.187 350.478 320.163 350.555 320.117C350.633 320.071 350.697 320.005 350.74 319.926L360.504 301.509C360.59 301.341 360.726 301.203 360.893 301.111L379.401 291.016C379.453 290.989 379.497 290.948 379.527 290.897C379.558 290.847 379.574 290.789 379.574 290.73C379.574 290.672 379.558 290.614 379.527 290.564C379.497 290.513 379.453 290.472 379.401 290.445L361.613 280.689C361.035 280.376 360.558 279.899 360.239 279.315L350.674 261.725C350.635 261.651 350.576 261.589 350.504 261.546C350.432 261.502 350.349 261.48 350.265 261.481C350.181 261.482 350.099 261.506 350.028 261.55C349.957 261.595 349.9 261.658 349.862 261.734C346.864 267.63 343.72 273.347 340.43 278.884C339.856 279.845 339.077 280.604 338.095 281.161ZM288.333 292.01C288.871 302.742 291.446 312.953 296.688 322.236C296.733 322.315 296.794 322.383 296.866 322.437C296.939 322.49 297.022 322.528 297.11 322.548C297.198 322.567 297.29 322.568 297.378 322.55C297.467 322.532 297.55 322.496 297.624 322.444L318.062 308.134C318.116 308.095 318.16 308.044 318.189 307.984C318.218 307.924 318.231 307.859 318.228 307.793C318.225 307.728 318.205 307.664 318.17 307.609C318.135 307.555 318.087 307.51 318.029 307.479L288.978 291.604C288.91 291.567 288.833 291.55 288.756 291.552C288.678 291.555 288.603 291.578 288.538 291.619C288.472 291.66 288.418 291.718 288.382 291.787C288.346 291.856 288.329 291.933 288.333 292.01ZM404.262 319.363C408.237 310.585 410.555 301.856 411.077 292.606C411.082 292.534 411.068 292.462 411.035 292.397C411.002 292.333 410.953 292.278 410.891 292.24C410.83 292.202 410.759 292.181 410.687 292.18C410.615 292.179 410.543 292.197 410.481 292.234L383.318 307.115C383.278 307.137 383.245 307.168 383.221 307.207C383.197 307.246 383.185 307.291 383.184 307.336C383.183 307.382 383.194 307.427 383.216 307.466C383.239 307.506 383.271 307.539 383.31 307.562L403.16 319.702C403.657 320.006 404.024 319.893 404.262 319.363ZM351.8 352.339C368.139 351.685 383.211 344.886 394.324 333.209C394.606 332.911 394.57 332.66 394.217 332.456L370.118 318.137C370.053 318.099 369.981 318.075 369.907 318.065C369.832 318.055 369.756 318.06 369.683 318.08C369.611 318.1 369.543 318.135 369.484 318.182C369.425 318.228 369.376 318.287 369.34 318.353L351.245 351.436C351.194 351.532 351.168 351.639 351.171 351.747C351.174 351.856 351.205 351.961 351.262 352.053C351.318 352.145 351.398 352.22 351.492 352.27C351.587 352.32 351.693 352.344 351.8 352.339ZM307.098 335.263C318.095 345.689 333.523 352.496 348.893 352.289C349.523 352.284 349.686 352.005 349.382 351.453L331.619 318.982C331.57 318.893 331.504 318.816 331.424 318.754C331.343 318.692 331.251 318.648 331.153 318.624C331.055 318.6 330.953 318.596 330.854 318.614C330.754 318.631 330.659 318.669 330.575 318.725L307.148 334.675C306.888 334.852 306.871 335.048 307.098 335.263Z"
    fill="white" />
  <path
    d="M195.543 249.785L180.786 249.733C180.558 249.733 180.372 249.917 180.371 250.146L180.319 264.887C180.319 265.115 180.503 265.301 180.732 265.302L195.489 265.354C195.718 265.354 195.904 265.17 195.905 264.941L195.956 250.2C195.957 249.972 195.772 249.786 195.543 249.785Z"
    fill="white" />
  <path
    d="M304.211 420.469L289.951 420.419C289.42 420.417 288.989 420.846 288.987 421.376L288.937 435.57C288.935 436.101 289.364 436.532 289.894 436.534L304.155 436.584C304.685 436.586 305.117 436.157 305.119 435.627L305.168 421.433C305.17 420.902 304.741 420.471 304.211 420.469Z"
    fill="white" />
</svg>